# xmcd
# 
# Track frame offsets:
#   182
#   15112
#   31907
#   47527
#   61020
#   77320
#   92470
#   105082
#   121137
#   142775
#   163495
#   180915
#   195590
#   214717
#   229102
# 
# Disc length: 3281 seconds
# 
# Revision: 2
# Processed by: cddbd v1.5.2PL0 Copyright (c) Steve Scherf et al.
# Submitted via: Synapstar 1.0 
# 
DISCID=9d0ccf0f
DTITLE=Various Artist - Chartbuster
DYEAR=1900
DGENRE=Country
TTITLE0=Merle Haggard - Branded Man
TTITLE1=Loretta Lynn - Don't Come Home A Drinkin'
TTITLE2=Jack Greene - All The Time
TTITLE3=George Jones - Walk Through The Woods With Me
TTITLE4=Tammy Wynette - I Don't Wanna Play House
TTITLE5=Buck Owens - Sam's Place
TTITLE6=Marty Robbins - Tonight Carmen
TTITLE7=Tammy Wynette - Your Good Girl's Gonna Be Bad
TTITLE8=Sonny James - I'll Never Find Another You
TTITLE9=Charlie Rich - My Elusive Dreams
TTITLE10=Bobbie Gentry - Ode To Billy Joe
TTITLE11=David Houston - You Mean The World To Me
TTITLE12=Tammy Wynette - Apartment #9
TTITLE13=Jim Ed Brown - Pop A Top
TTITLE14=Connie Smith - Cincinnati Ohio
EXTD=MediaType: Karaoke CD+G Producer: Chartbuster
EXTT0=
EXTT1=
EXTT2=
EXTT3=
EXTT4=
EXTT5=
EXTT6=
EXTT7=
EXTT8=
EXTT9=
EXTT10=
EXTT11=
EXTT12=
EXTT13=
EXTT14=
PLAYORDER=
